<svg xmlns="http://www.w3.org/2000/svg" id="Layer_1" data-name="Layer 1" viewBox="0 0 739.23 268.39"><defs><style>.cls-1{fill:#e29907;}.cls-2{fill:#0f1e64;}</style></defs><path class="cls-1" d="M213.57,488.87v24.52a3.3,3.3,0,0,0,3.3,3.3h25.51a3.3,3.3,0,0,0,3.3-3.3V488.83a3.3,3.3,0,0,0-3.3-3.3H218.27a3.31,3.31,0,0,1-2.34-1l-1.28-1.28a3.33,3.33,0,0,1-1-2.33V449.11a3.3,3.3,0,0,0-3.3-3.3h-32a3.3,3.3,0,0,0-3.3,3.3v32a3.3,3.3,0,0,0,3.27,3.3l31.24.31a3.3,3.3,0,0,1,2.5,1.18l.75.89A3.35,3.35,0,0,1,213.57,488.87Z" transform="translate(-134.17 -365.77)"></path><path class="cls-1" d="M255.61,503.49H295a2.36,2.36,0,0,0,1.64-.68l.8-.8a2.37,2.37,0,0,0,.68-1.67L297.86,478a2.32,2.32,0,0,1,2.32-2.35h24.17a2.32,2.32,0,0,1,2.32,2.32v23.19a2.32,2.32,0,0,1-2.32,2.32H302.18a2.32,2.32,0,0,0-1.64.68l-1.14,1.14a2.32,2.32,0,0,0-.68,1.64v40.12a2.31,2.31,0,0,1-2.32,2.32H255.61a2.32,2.32,0,0,1-2.32-2.32V505.81A2.32,2.32,0,0,1,255.61,503.49Z" transform="translate(-134.17 -365.77)"></path><rect class="cls-1" x="93.82" y="159.63" width="17.3" height="16.77" rx="1.28"></rect><path class="cls-2" d="M253.77,467.25A72.66,72.66,0,0,1,371.3,477.64c7.25-8.5,13.8-16.82,19.54-24.81a102.74,102.74,0,0,0-137.07-24.91v-52.7a5.3,5.3,0,0,0-5.3-5.3H228.38a5.3,5.3,0,0,0-5.3,5.3V473.4H249A70.89,70.89,0,0,1,253.77,467.25Z" transform="translate(-134.17 -365.77)"></path><path class="cls-2" d="M247.26,553.32H213.57a101.73,101.73,0,0,0,9.51,18,103,103,0,0,0,16.18,19c8.54-5.1,17.37-10.83,26.41-17.16A73.23,73.23,0,0,1,247.26,553.32Z" transform="translate(-134.17 -365.77)"></path><path class="cls-2" d="M405.22,479.13c-7.2,9.75-15.24,19.61-24,29.47.17,2,.27,4,.27,6.1a72.63,72.63,0,0,1-72.66,72.66,73.25,73.25,0,0,1-13.67-1.29C284.54,593.73,274,600.74,263.67,607A102.79,102.79,0,0,0,405.22,479.13Z" transform="translate(-134.17 -365.77)"></path><path class="cls-1" d="M428.28,375.22c-16.56-19-63.91-8.36-117.92,23.25h8.58c46.63-27.4,88-35.2,101.57-19.91,13,14.62,1.92,45.45-24.58,81.69-6.05,8.27-12.9,16.82-20.46,25.53a580,580,0,0,1-56.76,56.39c-15.33,13.34-30.63,25.39-45.45,35.92-9.3,6.6-18.41,12.6-27.23,17.95-46.62,28.27-85.12,38.2-99.86,21.25-14-16-2.15-51.37,28.87-91.89H172c-38.22,41.71-45.6,81.82-30.38,99.31,16.4,18.84,61.3,8.54,113.61-22.36,9.62-5.69,19.49-12.07,29.49-19.1a534.42,534.42,0,0,0,43.2-33.93,517.18,517.18,0,0,0,51.61-51.48c8.11-9.39,15.45-18.67,21.93-27.7C431.29,428.5,443,392.11,428.28,375.22Z" transform="translate(-134.17 -365.77)"></path><path class="cls-2" d="M489.85,434.2q29,0,29,22.74,0,13.05-12.39,19.39,8.43,2.44,12.58,8.59a25.78,25.78,0,0,1,4.16,14.8,26.42,26.42,0,0,1-2.3,11.18,23.45,23.45,0,0,1-6.52,8.4,30.33,30.33,0,0,1-10.16,5.29A43.75,43.75,0,0,1,491,526.47H446.79V434.2Zm9.58,26.36q0-10.59-13.54-10.6h-19v21.58h20.44Q499.44,471.54,499.43,460.56Zm3.71,38q0-13.17-14.31-13.18h-22V510.7h21.59Q503.14,510.7,503.14,498.55Z" transform="translate(-134.17 -365.77)"></path><path class="cls-2" d="M577.63,528.67a46.27,46.27,0,0,1-18.4-3.56A41.23,41.23,0,0,1,545,515.23,44.09,44.09,0,0,1,536,500a60.45,60.45,0,0,1,.07-39,46,46,0,0,1,9.13-15.38,41.12,41.12,0,0,1,14.18-10.08A45.33,45.33,0,0,1,577.63,432,46.25,46.25,0,0,1,596,435.55a40.4,40.4,0,0,1,14.19,10A45.33,45.33,0,0,1,619.28,461a58.23,58.23,0,0,1,3.19,19.77A55.33,55.33,0,0,1,619.21,500a44.68,44.68,0,0,1-9.13,15.19,41.28,41.28,0,0,1-14.18,9.88A46,46,0,0,1,577.63,528.67Zm0-17.06q11.61,0,18.2-8.27t6.58-22.62q0-14.87-6.51-23.26t-18.4-8.4q-11.62,0-18.15,8.4t-6.51,23.26a45,45,0,0,0,1.66,12.66,28.54,28.54,0,0,0,4.85,9.76,21.54,21.54,0,0,0,7.8,6.27A24,24,0,0,0,577.63,511.61Z" transform="translate(-134.17 -365.77)"></path><path class="cls-2" d="M700.28,434.2v17.05H656.2v21.33h38.2v15.76H656.2v38.13H636.14V434.2Z" transform="translate(-134.17 -365.77)"></path><path class="cls-2" d="M776.05,434.2v17.05H732v21.33h38.2v15.76H732v38.13H711.91V434.2Z" transform="translate(-134.17 -365.77)"></path><path class="cls-2" d="M828.56,528.67a46.27,46.27,0,0,1-18.4-3.56A41.23,41.23,0,0,1,796,515.23,44.09,44.09,0,0,1,786.9,500a60.45,60.45,0,0,1,.07-39,46,46,0,0,1,9.13-15.38,41.12,41.12,0,0,1,14.18-10.08A45.33,45.33,0,0,1,828.56,432,46.25,46.25,0,0,1,847,435.55a40.4,40.4,0,0,1,14.19,10A45.33,45.33,0,0,1,870.21,461a58.23,58.23,0,0,1,3.19,19.77A55.33,55.33,0,0,1,870.14,500,44.68,44.68,0,0,1,861,515.23a41.28,41.28,0,0,1-14.18,9.88A46,46,0,0,1,828.56,528.67Zm0-17.06q11.63,0,18.2-8.27t6.58-22.62q0-14.87-6.51-23.26t-18.4-8.4q-11.62,0-18.15,8.4t-6.51,23.26a45,45,0,0,0,1.66,12.66,28.54,28.54,0,0,0,4.85,9.76,21.54,21.54,0,0,0,7.8,6.27A24,24,0,0,0,828.56,511.61Z" transform="translate(-134.17 -365.77)"></path><path class="cls-1" d="M468,596.39a29.15,29.15,0,0,1-8.5-1.19,19.85,19.85,0,0,1-6.72-3.49,16,16,0,0,1-4.39-5.53,16.57,16.57,0,0,1-1.57-7.33v-.35h10.59a8.42,8.42,0,0,0,3,6.87,12.2,12.2,0,0,0,8,2.43,14.11,14.11,0,0,0,7.07-1.55,5.1,5.1,0,0,0,2.68-4.72,4.63,4.63,0,0,0-1.46-3.46,11.31,11.31,0,0,0-3.9-2.32c-.79-.28-1.87-.6-3.24-1s-3-.77-5-1.24a54.79,54.79,0,0,1-5.72-1.72,26.1,26.1,0,0,1-4-1.87,12.17,12.17,0,0,1-2.75-2.15,15.91,15.91,0,0,1-1.91-2.5,12.41,12.41,0,0,1-1.61-6.48,13.39,13.39,0,0,1,2.65-8.25,15.61,15.61,0,0,1,7-5.21,24.18,24.18,0,0,1,8.91-1.69,28.79,28.79,0,0,1,8.26,1.09,18.82,18.82,0,0,1,6.27,3.13,13.51,13.51,0,0,1,4,5.08,16.32,16.32,0,0,1,1.4,6.9H476.4a7.5,7.5,0,0,0-2.54-5.7q-2.34-1.91-7.21-1.91a9.19,9.19,0,0,0-5.51,1.52,4.9,4.9,0,0,0-2.09,4.19,3.74,3.74,0,0,0,1.29,3.17,12.24,12.24,0,0,0,3.66,1.76c.79.24,1.87.54,3.24.92s3.05.82,5.05,1.34,3.91,1,5.47,1.58a26.53,26.53,0,0,1,4.07,1.77,14.66,14.66,0,0,1,3,2.11,11.61,11.61,0,0,1,2.09,2.57,13.21,13.21,0,0,1,1.74,7,14.72,14.72,0,0,1-2.51,8.52,15.79,15.79,0,0,1-7.31,5.64,26.46,26.46,0,0,1-5.12,1.48A31.75,31.75,0,0,1,468,596.39Z" transform="translate(-134.17 -365.77)"></path><path class="cls-1" d="M499.53,608c-.75,0-1.63,0-2.65-.11l-3.55-.24v-8.25c.88.1,1.75.18,2.61.25s1.73.11,2.61.11a4.09,4.09,0,0,0,3.24-1.31,4.75,4.75,0,0,0,1.15-3.27,6.41,6.41,0,0,0-.42-2.26l-12.68-34.17h10.59l8.15,24.94h.14l7.87-24.94h10.25l-15.05,41a12.89,12.89,0,0,1-4.43,6.27Q504.54,608,499.53,608Z" transform="translate(-134.17 -365.77)"></path><path class="cls-1" d="M545.36,596.18q-8,0-12.4-3.42a11.62,11.62,0,0,1-4.52-9.4h9.4a5.37,5.37,0,0,0,2.12,4.47,8.61,8.61,0,0,0,5.47,1.66,8.12,8.12,0,0,0,4.64-1.24,3.88,3.88,0,0,0,1.84-3.41,2.85,2.85,0,0,0-1.15-2.33,10.59,10.59,0,0,0-3.24-1.62c-.69-.23-1.58-.49-2.64-.77s-2.35-.57-3.83-.85a33.83,33.83,0,0,1-6.24-1.94,9.32,9.32,0,0,1-4.07-3.13,7.49,7.49,0,0,1-1.47-4.72A11.43,11.43,0,0,1,531,563.2a10.66,10.66,0,0,1,5.26-4.08,23.82,23.82,0,0,1,8.71-1.34q7.31,0,11.35,3a11.37,11.37,0,0,1,4.53,8.67h-9.41a4.71,4.71,0,0,0-1.88-3.77,8.46,8.46,0,0,0-4.87-1.17q-5.5,0-5.51,3.39a2.78,2.78,0,0,0,.91,2.11,7.65,7.65,0,0,0,2.79,1.48,23.64,23.64,0,0,0,4,1.06,42.71,42.71,0,0,1,9.54,2.74,10.37,10.37,0,0,1,4.08,3.35,8.67,8.67,0,0,1,1.28,4.9q0,6.19-4.42,9.44T545.36,596.18Z" transform="translate(-134.17 -365.77)"></path><path class="cls-1" d="M581.52,595.62q-5.71,0-8.5-2t-2.79-6.84V565.46h-6v-6.69h6V547.84h9.9v10.93h7.24v6.69h-7.24v18c0,1.69.28,2.82.83,3.38s1.67.85,3.35.85a12.84,12.84,0,0,0,3.06-.29v7.83c-.7.09-1.53.17-2.51.24S582.77,595.62,581.52,595.62Z" transform="translate(-134.17 -365.77)"></path><path class="cls-1" d="M608.41,596.18a19.88,19.88,0,0,1-9.2-2.15,15.94,15.94,0,0,1-6.68-6.66A20.61,20.61,0,0,1,590,577a21.24,21.24,0,0,1,.66-5.32,20.58,20.58,0,0,1,1.88-4.8,17.92,17.92,0,0,1,3-4,16.56,16.56,0,0,1,3.83-2.89,19.09,19.09,0,0,1,9.06-2.25,17.6,17.6,0,0,1,9.09,2.36,15.81,15.81,0,0,1,6.23,6.94,23.09,23.09,0,0,1,2.23,10.5v.74c0,.31,0,.67-.06,1.09h-26a10.48,10.48,0,0,0,2.27,6.84q2.12,2.38,6.51,2.39a9.47,9.47,0,0,0,5-1.37,6.18,6.18,0,0,0,2.89-3.35h8.71Q621.37,596.25,608.41,596.18Zm5.05-29a7.35,7.35,0,0,0-5.4-1.83,7.72,7.72,0,0,0-5.71,2.08,8.9,8.9,0,0,0-2.44,5.67H616C615.54,570.35,614.69,568.37,613.46,567.15Z" transform="translate(-134.17 -365.77)"></path><path class="cls-1" d="M641.36,558.77v4.93h.14a12.76,12.76,0,0,1,11-5.92q7.88,0,10.52,6.06,4.11-6.06,10.94-6.06c4.51,0,7.81,1.14,9.93,3.42s3.17,5.46,3.17,9.54V595.2h-9.9V574.13c0-3.2-.47-5.4-1.42-6.63s-2.5-1.83-4.64-1.83q-6.61,0-6.61,9.16V595.2h-9.9V573.7q0-4.65-1.42-6.34a5.7,5.7,0,0,0-4.57-1.69,6,6,0,0,0-4.8,2.26,9.12,9.12,0,0,0-1.88,6.06V595.2H632V558.77Z" transform="translate(-134.17 -365.77)"></path><path class="cls-1" d="M726.21,544.88v41h24.24v9.31H715.27V544.88Z" transform="translate(-134.17 -365.77)"></path><path class="cls-1" d="M766.26,596.18q-5.64,0-9-2.89a10.11,10.11,0,0,1-3.31-8,12.77,12.77,0,0,1,.73-4.47,7.9,7.9,0,0,1,2.44-3.35,13.28,13.28,0,0,1,4.57-2.29,37,37,0,0,1,7-1.31,40.45,40.45,0,0,0,4.91-.7,8.74,8.74,0,0,0,2.68-.92,3.18,3.18,0,0,0,1.61-2.88,4.46,4.46,0,0,0-1.47-3.67c-1-.8-2.6-1.2-4.87-1.2a7.57,7.57,0,0,0-4.74,1.27A5.81,5.81,0,0,0,765,570h-9.89a11.16,11.16,0,0,1,4.87-9.09q4.53-3.11,12.12-3.1,15.75.08,15.75,10.36v19.3c0,3.53.42,6.11,1.25,7.76h-10a14.65,14.65,0,0,1-.45-1.73,15.28,15.28,0,0,1-.25-1.8Q774,596.18,766.26,596.18Zm-2.37-11.34a3.68,3.68,0,0,0,1.05,2.64,6.36,6.36,0,0,0,2.61,1.62,8.55,8.55,0,0,0,3.38.39,7.93,7.93,0,0,0,3.38-1.06,7.31,7.31,0,0,0,2.61-2.68,8.68,8.68,0,0,0,1.05-4.51v-3.87q-1.26,1.26-6,1.76a15.19,15.19,0,0,0-6.14,1.73A4.35,4.35,0,0,0,763.89,584.84Z" transform="translate(-134.17 -365.77)"></path><path class="cls-1" d="M816.84,596.18q-8.72,0-11.77-5.64h-.14v4.66h-9.41V544.88h9.89V563.2h.14a11.36,11.36,0,0,1,4.57-3.94,14.91,14.91,0,0,1,6.79-1.48,13,13,0,0,1,6.06,1.41,14.26,14.26,0,0,1,4.7,3.94,18.79,18.79,0,0,1,3.07,6.06,26.75,26.75,0,0,1,1.08,7.76,27,27,0,0,1-1.08,7.78,19,19,0,0,1-3,6.1,13.69,13.69,0,0,1-4.73,3.94A13.38,13.38,0,0,1,816.84,596.18Zm-3.35-7.54a7.32,7.32,0,0,0,6.1-3.06q2.32-3.08,2.33-8.56c0-3.57-.75-6.42-2.26-8.53a7.26,7.26,0,0,0-6.24-3.17,7,7,0,0,0-6.16,3.21,14.76,14.76,0,0,0-2.19,8.49,14.1,14.1,0,0,0,2.29,8.45A7.2,7.2,0,0,0,813.49,588.64Z" transform="translate(-134.17 -365.77)"></path><path class="cls-1" d="M853.27,596.18q-8,0-12.4-3.42a11.6,11.6,0,0,1-4.53-9.4h9.41a5.35,5.35,0,0,0,2.12,4.47,8.61,8.61,0,0,0,5.47,1.66,8.09,8.09,0,0,0,4.63-1.24,3.89,3.89,0,0,0,1.85-3.41,2.85,2.85,0,0,0-1.15-2.33,10.83,10.83,0,0,0-3.24-1.62c-.7-.23-1.58-.49-2.65-.77s-2.34-.57-3.83-.85a33.47,33.47,0,0,1-6.23-1.94,9.41,9.41,0,0,1-4.08-3.13,7.54,7.54,0,0,1-1.46-4.72,11.43,11.43,0,0,1,1.71-6.28,10.63,10.63,0,0,1,5.25-4.08,23.86,23.86,0,0,1,8.71-1.34q7.32,0,11.36,3a11.37,11.37,0,0,1,4.53,8.67h-9.41a4.74,4.74,0,0,0-1.88-3.77,8.47,8.47,0,0,0-4.88-1.17c-3.66,0-5.5,1.13-5.5,3.39A2.75,2.75,0,0,0,848,570a7.68,7.68,0,0,0,2.78,1.48,23.9,23.9,0,0,0,4,1.06,43,43,0,0,1,9.55,2.74,10.41,10.41,0,0,1,4.07,3.35,8.67,8.67,0,0,1,1.29,4.9q0,6.19-4.42,9.44T853.27,596.18Z" transform="translate(-134.17 -365.77)"></path></svg>